<svg width="1847" height="917" viewBox="0 0 1847 917" fill="none" xmlns="http://www.w3.org/2000/svg">
<rect width="1847" height="917" fill="white"/>
<rect width="839" height="839" transform="translate(504 39)" fill="white"/>
<path d="M572.06 523.42C560.18 523.42 549.98 521.38 541.46 517.3C532.94 513.1 525.98 507.64 520.58 500.92C515.18 494.08 511.16 486.76 508.52 478.96C506 471.04 504.74 463.36 504.74 455.92V451.96C504.74 443.8 506.06 435.76 508.7 427.84C511.34 419.8 515.36 412.54 520.76 406.06C526.28 399.58 533.18 394.42 541.46 390.58C549.86 386.62 559.76 384.64 571.16 384.64C583.04 384.64 593.54 386.86 602.66 391.3C611.78 395.74 619.04 401.92 624.44 409.84C629.96 417.64 633.2 426.82 634.16 437.38H604.46C603.62 432.1 601.7 427.6 598.7 423.88C595.7 420.16 591.8 417.28 587 415.24C582.32 413.2 577.04 412.18 571.16 412.18C565.28 412.18 560.06 413.2 555.5 415.24C550.94 417.28 547.1 420.16 543.98 423.88C540.98 427.6 538.64 432.04 536.96 437.2C535.4 442.24 534.62 447.88 534.62 454.12C534.62 460.24 535.4 465.88 536.96 471.04C538.64 476.08 541.04 480.52 544.16 484.36C547.4 488.08 551.36 490.96 556.04 493C560.72 494.92 566.06 495.88 572.06 495.88C581.18 495.88 588.86 493.66 595.1 489.22C601.46 484.78 605.3 478.66 606.62 470.86H636.14C635.06 480.46 631.82 489.28 626.42 497.32C621.14 505.24 613.88 511.6 604.64 516.4C595.52 521.08 584.66 523.42 572.06 523.42ZM702.165 523.42C693.525 523.42 685.845 522.1 679.125 519.46C672.405 516.7 666.705 512.98 662.025 508.3C657.465 503.62 653.985 498.28 651.585 492.28C649.185 486.16 647.985 479.74 647.985 473.02V468.88C647.985 462.04 649.185 455.56 651.585 449.44C654.105 443.2 657.705 437.74 662.385 433.06C667.185 428.38 672.945 424.72 679.665 422.08C686.385 419.32 693.885 417.94 702.165 417.94C710.685 417.94 718.245 419.32 724.845 422.08C731.565 424.72 737.265 428.38 741.945 433.06C746.625 437.74 750.225 443.2 752.745 449.44C755.265 455.56 756.525 462.04 756.525 468.88V473.02C756.525 479.74 755.325 486.16 752.925 492.28C750.525 498.28 746.985 503.62 742.305 508.3C737.745 512.98 732.105 516.7 725.385 519.46C718.665 522.1 710.925 523.42 702.165 523.42ZM702.165 499.12C707.805 499.12 712.485 497.92 716.205 495.52C719.925 493.12 722.745 489.76 724.665 485.44C726.705 481.12 727.725 476.32 727.725 471.04C727.725 465.4 726.705 460.48 724.665 456.28C722.625 451.96 719.685 448.54 715.845 446.02C712.125 443.5 707.565 442.24 702.165 442.24C696.885 442.24 692.325 443.5 688.485 446.02C684.645 448.54 681.705 451.96 679.665 456.28C677.745 460.48 676.785 465.4 676.785 471.04C676.785 476.32 677.745 481.12 679.665 485.44C681.585 489.76 684.465 493.12 688.305 495.52C692.145 497.92 696.765 499.12 702.165 499.12ZM817.304 523.24C810.344 523.24 803.984 521.98 798.224 519.46C792.584 516.94 787.664 513.46 783.464 509.02C779.264 504.46 776.024 499.12 773.744 493C771.584 486.88 770.504 480.28 770.504 473.2V469.06C770.504 461.98 771.524 455.38 773.564 449.26C775.724 443.14 778.784 437.8 782.744 433.24C786.824 428.56 791.684 424.96 797.324 422.44C802.964 419.8 809.264 418.48 816.224 418.48C824.144 418.48 830.984 420.22 836.744 423.7C842.504 427.06 847.004 432.1 850.244 438.82C853.484 445.42 855.284 453.58 855.644 463.3L848.084 456.28V388.6H877.064V520H854.204V479.14H858.164C857.804 488.5 855.824 496.48 852.224 503.08C848.744 509.68 844.004 514.72 838.004 518.2C832.004 521.56 825.104 523.24 817.304 523.24ZM824.504 499.12C828.944 499.12 832.964 498.16 836.564 496.24C840.284 494.2 843.224 491.26 845.384 487.42C847.664 483.58 848.804 478.96 848.804 473.56V466.9C848.804 461.62 847.664 457.18 845.384 453.58C843.104 449.98 840.104 447.22 836.384 445.3C832.664 443.38 828.644 442.42 824.324 442.42C819.524 442.42 815.204 443.68 811.364 446.2C807.644 448.6 804.704 451.96 802.544 456.28C800.384 460.48 799.304 465.4 799.304 471.04C799.304 476.8 800.384 481.78 802.544 485.98C804.704 490.18 807.704 493.42 811.544 495.7C815.384 497.98 819.704 499.12 824.504 499.12ZM948.367 523.42C939.967 523.42 932.527 521.98 926.047 519.1C919.687 516.22 914.347 512.38 910.027 507.58C905.827 502.66 902.587 497.2 900.307 491.2C898.147 485.08 897.067 478.84 897.067 472.48V468.88C897.067 462.28 898.147 455.98 900.307 449.98C902.587 443.86 905.827 438.4 910.027 433.6C914.227 428.8 919.447 425.02 925.687 422.26C932.047 419.38 939.247 417.94 947.287 417.94C957.847 417.94 966.727 420.34 973.927 425.14C981.247 429.82 986.827 436 990.667 443.68C994.507 451.24 996.427 459.52 996.427 468.52V478.24H909.127V461.86H978.967L969.607 469.42C969.607 463.54 968.767 458.5 967.087 454.3C965.407 450.1 962.887 446.92 959.527 444.76C956.287 442.48 952.207 441.34 947.287 441.34C942.247 441.34 937.987 442.48 934.507 444.76C931.027 447.04 928.387 450.4 926.587 454.84C924.787 459.16 923.887 464.5 923.887 470.86C923.887 476.74 924.727 481.9 926.407 486.34C928.087 490.66 930.727 494.02 934.327 496.42C937.927 498.82 942.607 500.02 948.367 500.02C953.647 500.02 957.967 499 961.327 496.96C964.687 494.92 966.967 492.4 968.167 489.4H994.627C993.187 496 990.367 501.88 986.167 507.04C981.967 512.2 976.687 516.22 970.327 519.1C963.967 521.98 956.647 523.42 948.367 523.42ZM1017.13 520V388.6H1065.55L1115.05 496.06H1121.17L1117.57 499.3V388.6H1145.29V520H1096.51L1047.01 412.54H1040.89L1044.49 409.3V520H1017.13ZM1218.37 523.42C1209.97 523.42 1202.53 521.98 1196.05 519.1C1189.69 516.22 1184.35 512.38 1180.03 507.58C1175.83 502.66 1172.59 497.2 1170.31 491.2C1168.15 485.08 1167.07 478.84 1167.07 472.48V468.88C1167.07 462.28 1168.15 455.98 1170.31 449.98C1172.59 443.86 1175.83 438.4 1180.03 433.6C1184.23 428.8 1189.45 425.02 1195.69 422.26C1202.05 419.38 1209.25 417.94 1217.29 417.94C1227.85 417.94 1236.73 420.34 1243.93 425.14C1251.25 429.82 1256.83 436 1260.67 443.68C1264.51 451.24 1266.43 459.52 1266.43 468.52V478.24H1179.13V461.86H1248.97L1239.61 469.42C1239.61 463.54 1238.77 458.5 1237.09 454.3C1235.41 450.1 1232.89 446.92 1229.53 444.76C1226.29 442.48 1222.21 441.34 1217.29 441.34C1212.25 441.34 1207.99 442.48 1204.51 444.76C1201.03 447.04 1198.39 450.4 1196.59 454.84C1194.79 459.16 1193.89 464.5 1193.89 470.86C1193.89 476.74 1194.73 481.9 1196.41 486.34C1198.09 490.66 1200.73 494.02 1204.33 496.42C1207.93 498.82 1212.61 500.02 1218.37 500.02C1223.65 500.02 1227.97 499 1231.33 496.96C1234.69 494.92 1236.97 492.4 1238.17 489.4H1264.63C1263.19 496 1260.37 501.88 1256.17 507.04C1251.97 512.2 1246.69 516.22 1240.33 519.1C1233.97 521.98 1226.65 523.42 1218.37 523.42ZM1330.33 521.26C1320.37 521.26 1312.33 520.06 1306.21 517.66C1300.09 515.14 1295.59 511 1292.71 505.24C1289.95 499.36 1288.57 491.44 1288.57 481.48V394.72H1315.39V482.56C1315.39 487.24 1316.59 490.84 1318.99 493.36C1321.51 495.76 1325.05 496.96 1329.61 496.96H1344.19V521.26H1330.33ZM1273.63 442.42V421.36H1344.19V442.42H1273.63Z" fill="#A200FF"/>
</svg>
